<svg width="1066" height="173" viewBox="0 0 1066 173" fill="none" xmlns="http://www.w3.org/2000/svg">
<path d="M313.883 116.822C313.883 121.657 314.773 122.293 327.241 122.293H330.676C348.869 122.293 354.34 119.239 360.701 105.499H364.263L358.538 127H289.838V124.583C299.125 123.947 300.906 122.038 300.906 113.133V56.6456C300.906 47.74 299.252 45.9589 289.838 45.1955V42.7783H357.393L357.775 60.9712H354.594C352.431 49.5211 349.632 47.6128 335.256 47.6128H318.081C314.646 47.6128 313.883 48.3761 313.883 51.9383V80.1819H333.475C345.307 80.1819 346.07 76.4924 347.47 68.0957H350.396V97.6115H347.47C345.816 87.0519 343.907 85.398 333.475 85.398H313.883V116.822ZM366.018 47.74V45.7044C374.797 43.5416 379.631 42.2694 386.247 40.1066L386.756 40.361V116.313C386.756 123.311 388.282 124.583 396.298 125.092V127H366.273V125.092C374.288 124.456 376.069 122.802 376.069 115.932V55.2461C376.069 49.2667 374.797 47.4855 370.726 47.4855C368.945 47.4855 367.545 47.6128 366.018 47.74ZM404.413 77.0013C403.268 77.0013 400.978 77.1285 399.07 77.383V75.4746C405.558 73.6935 412.174 71.2763 418.789 68.4774L419.298 68.859V114.023C419.298 123.183 420.316 124.456 428.713 125.092V127H398.561V125.092C407.339 124.583 408.611 123.183 408.611 114.023V84.5075C408.611 78.9097 407.466 77.0013 404.413 77.0013ZM412.81 40.1066C416.499 40.1066 419.425 43.0327 419.425 46.595C419.425 50.2844 416.499 53.0834 412.81 53.0834C409.247 53.0834 406.449 50.1572 406.449 46.595C406.449 43.0327 409.375 40.1066 412.81 40.1066ZM461.891 69.7496V73.8207H449.041V110.207C449.041 118.222 450.95 121.657 455.657 121.657C458.456 121.657 460.619 120.384 463.29 117.204L464.944 118.603C460.746 125.219 455.912 128.272 449.678 128.272C442.171 128.272 438.355 122.802 438.355 112.115V73.8207H431.612C431.23 73.5663 431.103 73.3118 431.103 72.9302C431.103 70.3857 434.284 73.1846 445.606 56.9001C446.497 55.6278 447.26 54.4828 448.151 53.3378C448.914 53.3378 449.041 53.7195 449.041 54.9917V69.7496H461.891ZM476.329 91.7592C477.092 114.405 487.906 119.494 496.176 119.494C504.318 119.494 509.789 115.804 515.895 106.135L517.931 107.026C512.587 120.766 503.046 128.272 490.96 128.272C476.329 128.272 467.169 117.331 467.169 99.7742C467.169 80.818 478.364 68.4774 493.758 68.4774C506.862 68.4774 513.605 76.3652 515.514 91.7592H476.329ZM476.583 87.688H502.537C500.883 76.6196 497.83 73.0574 490.069 73.0574C482.308 73.0574 477.983 77.7646 476.583 87.688ZM614.79 56.3912C614.79 65.1696 609.701 71.2763 595.071 78.1463C600.669 89.0875 604.74 95.5759 611.864 104.354C620.007 93.5403 623.442 86.6703 623.442 81.1997C623.442 77.383 621.66 76.1107 615.299 75.4746V72.8029H642.779V75.4746C636.418 76.238 633.874 77.7646 630.82 82.9808C625.477 92.3953 623.442 96.212 614.79 107.917C620.643 115.677 627.258 119.621 634.383 119.621C638.963 119.621 641.762 117.967 645.833 112.878L647.741 114.278C643.924 123.311 636.673 128.654 628.53 128.654C621.152 128.654 614.918 125.346 606.903 117.077C597.361 125.473 589.727 128.654 579.422 128.654C565.937 128.654 557.667 121.402 557.667 109.316C557.667 93.1586 571.153 85.2708 582.476 79.0369C579.041 69.4951 578.023 65.424 578.023 60.5895C578.023 49.6483 586.674 40.9972 597.615 40.9972C607.666 40.9972 614.79 47.3583 614.79 56.3912ZM593.162 74.0752C603.595 68.4774 608.048 63.0068 608.048 55.8823C608.048 49.6483 603.722 45.0683 597.87 45.0683C592.017 45.0683 588.073 49.3939 588.073 55.5006C588.073 61.2256 589.346 66.0601 593.162 74.0752ZM584.384 83.3625C573.316 90.487 569.372 95.9576 569.372 104.1C569.372 113.896 576.878 122.038 585.783 122.038C591.127 122.038 596.216 119.748 603.722 113.769C596.47 104.863 592.017 97.8659 584.384 83.3625ZM758.593 104.1C758.593 113.26 752.487 127 727.805 127H685.313V124.583C695.872 124.201 697.526 122.547 697.526 113.133V56.6456C697.526 47.2311 695.999 45.8316 685.313 45.1955V42.7783H720.935C742.945 42.7783 754.268 50.1572 754.268 64.4062C754.268 79.0369 741.291 81.5813 736.838 82.7263C741.927 83.9986 758.593 87.5608 758.593 104.1ZM718.518 122.293C732.385 122.293 743.963 119.239 743.963 104.227C743.963 86.2886 727.424 85.5253 710.503 85.5253V117.077C710.503 121.148 712.284 122.293 718.518 122.293ZM710.503 80.4363H722.589C734.548 80.4363 741.291 74.8385 741.291 64.9151C741.291 53.5922 733.53 47.4855 718.9 47.4855H713.302C711.393 47.4855 710.503 48.6305 710.503 51.3022V80.4363ZM779.105 91.7592C779.868 114.405 790.682 119.494 798.952 119.494C807.094 119.494 812.565 115.804 818.671 106.135L820.707 107.026C815.364 120.766 805.822 128.272 793.736 128.272C779.105 128.272 769.945 117.331 769.945 99.7742C769.945 80.818 781.141 68.4774 796.535 68.4774C809.639 68.4774 816.381 76.3652 818.29 91.7592H779.105ZM779.359 87.688H805.313C803.659 76.6196 800.606 73.0574 792.845 73.0574C785.085 73.0574 780.759 77.7646 779.359 87.688ZM838.032 144.048C843.248 144.048 849.482 128.399 849.482 124.583C849.482 122.674 847.065 118.349 843.884 111.733L827.091 75.6019C826.073 73.4391 823.91 72.0396 820.603 71.5307V69.7496H846.811V71.6579C841.34 71.9124 839.432 72.8029 839.432 75.093C839.432 76.4924 839.941 78.1463 840.704 79.9274L855.335 112.115L867.675 77.0013C868.057 76.1107 868.184 75.3474 868.184 74.8385C868.184 72.8029 866.149 71.6579 862.077 71.6579V69.7496H879.253V71.6579C876.199 72.0396 874.672 73.3118 873.146 77.383L853.553 129.29C846.683 147.61 840.577 154.735 832.053 154.735C826.709 154.735 822.638 151.554 822.638 147.356C822.638 144.302 825.183 141.758 828.109 141.758C832.943 141.758 835.869 144.048 838.032 144.048ZM909.145 68.4774C925.429 68.4774 937.134 80.5636 937.134 97.2298C937.134 114.787 924.921 128.272 908.89 128.272C892.86 128.272 881.029 115.423 881.029 98.2476C881.029 80.6908 892.606 68.4774 909.145 68.4774ZM892.479 92.0136C892.479 109.698 899.476 124.71 910.417 124.71C919.959 124.71 925.684 116.059 925.684 101.683C925.684 84.253 918.178 72.0396 907.491 72.0396C898.458 72.0396 892.479 79.9274 892.479 92.0136ZM941.123 76.3652V74.2024C948.12 72.1668 952.446 70.7674 958.68 68.4774L959.57 68.7318V78.7824C968.221 70.6401 972.165 68.4774 978.017 68.4774C987.432 68.4774 993.03 75.6019 993.03 87.5608V116.695C993.03 122.929 994.556 124.456 1000.79 125.092V127H974.328V125.092C980.689 124.583 982.343 122.42 982.343 114.405V87.8153C982.343 79.4185 979.29 75.4746 973.056 75.4746C968.857 75.4746 966.058 77.0013 959.952 82.7263V118.476C959.952 123.056 961.86 124.583 968.348 125.092V127H941.377V125.092C947.866 124.583 949.265 122.802 949.265 115.55V83.9986C949.265 77.7646 948.12 75.8563 944.558 75.8563C943.158 75.8563 941.886 75.9835 941.123 76.3652ZM1045.84 128.272L1045.33 127.891V119.748C1041.01 125.728 1036.17 128.272 1029.05 128.272C1015.05 128.272 1005.51 117.204 1005.51 100.919C1005.51 82.8536 1017.34 68.4774 1031.97 68.4774C1037.06 68.4774 1040.5 69.8768 1045.33 73.9479V54.1011C1045.33 48.885 1044.19 47.6128 1039.48 47.6128C1038.46 47.6128 1037.7 47.6128 1036.68 47.74V45.7044C1044.82 43.5416 1049.28 42.2694 1055.38 40.1066L1056.02 40.361V112.497C1056.02 118.349 1057.04 119.748 1061.62 119.748C1062 119.748 1062.25 119.748 1064.54 119.621V121.657L1045.84 128.272ZM1034.01 121.657C1041.26 121.657 1045.33 116.186 1045.33 114.023V84.7619C1045.33 78.0191 1039.1 72.0396 1032.36 72.0396C1022.69 72.0396 1016.45 81.4541 1016.45 95.8303C1016.45 111.479 1023.45 121.657 1034.01 121.657Z" fill="#E9C368"/>
<path d="M0.746826 23.8764C41.8378 19.9561 105.118 58.4465 93.8864 123.043C89.6184 77.9795 60.8159 44.3851 19.6488 36.6146C21.9983 37.9377 25.6286 46.9482 25.1275 64.7308C23.4839 91.5769 42.2685 113.493 77.587 122.084C24.5797 146.639 72.656 189.647 92.3797 140.301C70.4645 212.384 4.58218 143.489 69.2318 123.043C57.0708 123.724 19.6488 112.807 14.9918 78.9756C11.8353 56.044 13.485 36.6145 0.746826 23.8764Z" fill="#E9C368"/>
<path fill-rule="evenodd" clip-rule="evenodd" d="M210.614 23.4938C200.585 35.8983 199.228 49.4614 197.597 65.7609C197.11 70.6345 196.597 75.7529 195.822 81.158C192.575 103.782 172.442 118.428 142.54 123.208C214.728 164.596 117.111 203.748 116.927 129.919C116.926 129.601 116.837 128.888 116.705 127.831C114.854 113.039 104.582 30.9631 210.614 23.4938ZM191.576 36.232C144.076 48.172 121.291 78.0104 118.16 129.919C124.078 188.155 197.083 156.652 133.638 121.838C160.564 115.101 175.011 106.353 183.494 83.2362C186.26 75.698 186.661 66.0741 187.021 57.4334C187.432 47.5478 187.79 38.9489 191.576 36.232Z" fill="#E9C368"/>
<path d="M105.526 79.4694C120.322 79.4694 108.679 166.171 105.526 166.171C102.374 166.169 90.7311 79.4698 105.526 79.4694Z" fill="#E9C368"/>
<path d="M105.529 61.7318C109.689 61.7318 113.062 65.1046 113.062 69.2651C113.062 73.4257 109.689 76.7984 105.529 76.7984C101.368 76.7984 97.9955 73.4257 97.9955 69.2651C97.9956 65.1046 101.368 61.7318 105.529 61.7318Z" fill="#E9C368"/>
<path d="M57.4207 0.499886C67.5804 1.26129 73.8243 3.09364 77.9776 6.4605C82.1277 9.8249 84.1721 14.7073 85.9691 21.5199C93.0068 29.7991 96.4148 35.675 98.6681 41.1919C99.795 43.951 100.632 46.6189 101.49 49.4481C102.348 52.2781 103.227 55.2697 104.438 58.6829L104.234 58.7566C98.8614 44.1232 94.2961 32.1983 84.8112 22.8441L84.8059 22.8382L84.801 22.8322C81.0918 17.9253 76.7056 13.6832 70.8755 10.0971C76.204 15.2925 79.0918 18.5417 83.7821 24.218L83.9724 24.4483L83.6785 24.394C76.2984 23.0306 71.1007 21.1204 67.0491 17.5291C62.9986 13.9386 60.1058 8.67874 57.3099 0.644137L57.2556 0.487764L57.4207 0.499886Z" fill="#E9C368"/>
<path d="M154.094 0.570436C151.298 8.60512 148.405 13.8649 144.354 17.4554C140.303 21.0467 135.105 22.9569 127.725 24.3203L127.431 24.3746L127.622 24.1445C132.312 18.4682 135.2 15.2188 140.528 10.0234C134.698 13.6095 130.312 17.8516 126.603 22.7585L126.598 22.7645L126.592 22.7704C117.107 32.1246 112.542 44.0496 107.17 58.6829L106.965 58.6092C108.176 55.196 109.055 52.2044 109.913 49.3744C110.771 46.5451 111.609 43.8773 112.736 41.1182C114.989 35.6013 118.397 29.7256 125.434 21.4464C127.231 14.6338 129.276 9.75122 133.426 6.3868C137.579 3.01994 143.823 1.18783 153.983 0.426427L154.148 0.414062L154.094 0.570436Z" fill="#E9C368"/>
</svg>
